<svg width="206" height="226" viewBox="0 0 206 226" fill="none" xmlns="http://www.w3.org/2000/svg">
<path d="M2 34.7314V224.108H173.345V115.002L177.559 109.547" stroke="#FE662E" stroke-width="3"/>
<path d="M168.429 32.394L165.62 33.9527L164.918 37.07V38.6287V40.1873L165.62 42.5253L167.025 44.8633L169.132 42.5253L171.941 45.6426L174.047 44.084L176.154 41.746V38.6287V35.5114L174.047 33.1734L171.238 32.394H168.429Z" stroke="#FE662E" stroke-width="3"/>
<path d="M167.025 72.9199L164.216 74.4786L163.514 77.5959V79.1545V80.7132L164.216 83.0512L165.621 85.3892L168.43 86.1685H171.239L173.345 84.6098L174.75 82.2719V79.1545V76.0372L172.643 73.6993L169.834 72.9199H167.025Z" stroke="#FE662E" stroke-width="3"/>
<path d="M186.688 12.1304L183.879 13.689L183.177 16.8063V18.365V19.9237L183.879 22.2616L185.284 24.5996L188.093 25.379H190.902L193.009 23.8203L194.413 21.4823V18.365V15.2477L192.306 12.9097L189.497 12.1304H186.688Z" stroke="#FE662E" stroke-width="3"/>
<path d="M154.384 199.949L150.171 205.404L154.384 213.197L150.873 205.404L162.811 206.183" stroke="#FE662E" stroke-width="3"/>
<path d="M87.6729 115.782V93.9609H119.273V115.782H87.6729Z" stroke="#FE662E" stroke-width="3"/>
<path d="M155.79 2V35.5111" stroke="#FE662E" stroke-width="3"/>
<path d="M156.491 2H202.838V53.4357H179.664" stroke="#FE662E" stroke-width="3"/>
<path d="M70.8201 36.2905V72.1396" stroke="#FE662E" stroke-width="3"/>
<path d="M138.232 35.5112V76.0363" stroke="#FE662E" stroke-width="3"/>
<path d="M138.232 84.6084V224.108" stroke="#FE662E" stroke-width="3"/>
<path d="M2 72.9199H138.234" stroke="#FE662E" stroke-width="3"/>
<path d="M135.427 79.9336L172.645 118.9" stroke="#FE662E" stroke-width="3"/>
<path d="M135.427 79.9326L169.134 43.3042L203.543 79.9326L195.819 90.0639" stroke="#FE662E" stroke-width="3"/>
<path d="M184.581 101.755L188.794 96.2993" stroke="#FE662E" stroke-width="3"/>
<path d="M61.6904 35.5112H155.79V56.5531" stroke="#FE662E" stroke-width="3"/>
<path d="M46.2408 35.5112H2" stroke="#FE662E" stroke-width="3"/>
<path d="M36.4094 35.5112L37.1117 224.109M105.228 35.5112V72.919" stroke="#FE662E" stroke-width="3"/>
<path d="M2.69995 186.701H172.641" stroke="#FE662E" stroke-width="3"/>
<path d="M70.8201 186.701V223.33" stroke="#FE662E" stroke-width="3"/>
<path d="M105.23 186.701V223.33" stroke="#FE662E" stroke-width="3"/>
<path d="M2 111.106H37.814" stroke="#FE662E" stroke-width="3"/>
<path d="M2 149.294H37.814" stroke="#FE662E" stroke-width="3"/>
<path d="M62.3919 144.617H53.9651V164.88H86.2679V144.617H73.6277" stroke="#FE662E" stroke-width="3"/>
</svg>
