<svg width="195" height="207" viewBox="0 0 195 207" fill="none" xmlns="http://www.w3.org/2000/svg">
<path d="M55.8667 156.952L63.3486 164.799L69.5836 170.031L78.3125 173.955L85.7945 176.571L94.5234 177.879H105.746L114.475 176.571L121.957 173.955C123.62 173.083 127.195 171.078 128.192 170.031C129.19 168.985 131.102 166.107 131.933 164.799L136.921 154.336" stroke="#FE662E" stroke-width="2"/>
<path d="M68.3367 168.724V179.187V187.035L65.8427 196.19L64.5957 205.346H82.0536H129.439V198.806L126.945 190.959V187.035V180.495V175.263V171.34" stroke="#FE662E" stroke-width="2"/>
<path d="M48.385 43.1612L55.867 34.0056L68.3369 24.8501L83.3007 19.6183L95.7707 17.0024L113.229 19.6183L131.933 31.3898L146.897 43.1612" stroke="#FE662E" stroke-width="2"/>
<path d="M43.3975 34.007L52.1264 20.9277L62.1023 11.7721L79.5602 3.92447L92.0301 1.30859L109.488 2.61653L124.452 9.15622L139.416 20.9277L151.886 31.3912" stroke="#FE662E" stroke-width="2"/>
<path d="M97.0183 2.61621V17.0035" stroke="#FE662E" stroke-width="2"/>
<path d="M131.936 14.3877L125.701 26.1591" stroke="#FE662E" stroke-width="2"/>
<path d="M145.65 24.8506L139.415 36.622" stroke="#FE662E" stroke-width="2"/>
<path d="M48.385 27.4668L55.867 34.0065" stroke="#FE662E" stroke-width="2"/>
<path d="M59.6082 14.3877L69.5841 24.8512" stroke="#FE662E" stroke-width="2"/>
<path d="M77.0667 5.23193L84.5486 19.6193M115.723 5.23193L113.229 19.6193" stroke="#FE662E" stroke-width="2"/>
<path d="M82.0535 124.255C83.0511 123.209 84.1318 122.075 85.7944 121.639L90.7824 120.331H95.7704H99.5113H104.499L108.24 121.639L111.981 124.255" stroke="#FE662E" stroke-width="2"/>
<path d="M97.0183 70.6299V94.974" stroke="#FE662E" stroke-width="2"/>
<path d="M57.1145 86.3237L67.0904 87.6317L77.0664 86.3237" stroke="#FE662E" stroke-width="2"/>
<path d="M119.464 85.0176L129.44 86.3255L139.416 85.0176" stroke="#FE662E" stroke-width="2"/>
<path d="M34.6688 0V22.2349L48.3857 43.162L49.6326 51.0096V62.781V74.5525L53.3736 87.6319L55.8676 99.4033V105.943L54.6206 109.867L49.6326 112.483H43.3977L38.4097 109.867M38.4097 109.867L34.6688 94.1716L28.4338 74.5525L38.4097 109.867ZM38.4097 109.867L40.9037 117.714L58.3616 149.105L55.8676 156.953L49.6326 160.876H43.3977L17.2109 117.714L1 65.3969V0" stroke="#FE662E" stroke-width="2"/>
<path d="M161.861 0V19.6191L150.638 34.0064L144.403 52.3175V77.1684L138.168 100.711V107.251L140.662 111.175L146.897 113.791H150.638L155.626 111.175M155.626 111.175L166.849 74.5525M155.626 111.175L138.168 146.489L136.921 154.337L138.168 156.953L140.662 160.876H146.897L153.132 156.953L176.825 116.407L193.036 64.089V0" stroke="#FE662E" stroke-width="2"/>
<path d="M53.013 64.5024L59.802 61.7715L64.597 60.7821L68.8311 60.7821L74.5733 61.7715L79.5614 64.5024" stroke="#FE662E" stroke-width="2"/>
<path d="M114.475 65.3661L121.264 62.6352L126.059 61.6459L130.294 61.6459L136.036 62.6353L141.024 65.3661" stroke="#FE662E" stroke-width="2"/>
</svg>
