<svg width="213" height="236" viewBox="0 0 213 236" fill="none" xmlns="http://www.w3.org/2000/svg">
<path d="M71.3881 135.854V143.728V149.142L70.4039 152.586L67.9433 155.047L62.53 156.031L91.5648 225.419V233.785" stroke="#FC6027" stroke-width="3"/>
<path d="M111.741 137.823V147.666L113.218 150.618L117.155 153.571L122.568 156.031L91.5647 225.42" stroke="#FC6027" stroke-width="3"/>
<path d="M68.4358 170.303L74.3412 172.763L82.215 174.732H90.0888H99.9311L110.266 172.763L116.663 170.303" stroke="#FC6027" stroke-width="3"/>
<path d="M71.3884 142.253H63.0224H54.1644L49.2432 146.19L44.3221 152.587L41.3694 160.461V164.398L60.0697 182.114L54.1644 195.401L91.5651 225.42" stroke="#FC6027" stroke-width="3"/>
<path d="M112.234 141.268C115.514 141.924 124.536 141.76 126.505 141.76C128.473 141.76 134.215 144.384 136.839 145.697L143.237 153.57L145.697 159.968L136.839 170.302L124.044 183.097L129.95 195.4L91.5647 225.419" stroke="#FC6027" stroke-width="3"/>
<path d="M41.3692 161.444L25.1294 165.381L16.7634 170.795L8.8896 180.145L3.96846 189.987L2 202.782" stroke="#FC6027" stroke-width="3"/>
<path d="M2 201.798V235.262" stroke="#FC6027" stroke-width="3"/>
<path d="M29.0664 209.179V235.753" stroke="#FC6027" stroke-width="3"/>
<path d="M111.25 234.279L134.379 210.165L145.205 220.992L130.934 234.279" stroke="#FC6027" stroke-width="3"/>
<path d="M154.063 235.264V209.182M154.063 209.182L149.142 204.261L143.729 195.895L140.776 187.037V173.749L143.729 161.939L146.682 156.525L151.111 151.604L157.508 147.175L164.398 144.715L170.303 143.73H176.701L183.59 144.715L188.511 145.699L194.909 148.159L198.846 150.62L201.799 153.573L205.243 158.494L207.704 164.399L209.672 168.828L211.149 176.702V187.037L207.704 195.895L201.306 204.261L192.941 211.642L180.638 215.579H170.795L160.461 213.119L154.063 209.182Z" stroke="#FC6027" stroke-width="3"/>
<path d="M154.063 169.811L153.079 173.748L152.095 178.177V182.606L153.079 187.528L155.048 191.464L158.985 195.894L161.937 198.354L167.351 200.815L175.224 202.783H181.13L185.559 200.815L192.448 195.894L196.877 190.48L198.846 182.606L197.862 173.748L194.909 167.351L190.48 161.445L184.082 157.509L176.701 156.032L167.351 157.509L160.461 161.445L156.032 166.367L154.063 169.811Z" stroke="#FC6027" stroke-width="3"/>
<path d="M181.129 215.577V235.262" stroke="#FC6027" stroke-width="3"/>
<path d="M140.284 50.7188L134.871 34.479L127.49 18.2393" stroke="#FC6027" stroke-width="3"/>
<path d="M33.4951 70.4035L27.5898 75.3247L27.0977 77.7852L27.5898 78.7695L32.0188 81.23H154.555L157.016 80.2458V75.3247L142.745 66.9587L125.521 62.5297L107.312 59.577L94.0252 58.5928H82.7066L73.8485 59.577L64.9905 60.5612L50.227 64.006L39.4005 66.9587L33.4951 70.4035Z" stroke="#FC6027" stroke-width="3"/>
<path d="M38.4163 81.7217V88.1192V92.5482L41.3689 95.0088L45.3059 96.4851H48.2586V81.7217" stroke="#FC6027" stroke-width="3"/>
<path d="M48.259 96.4869V105.837L49.2433 112.727L51.7038 118.632L56.625 124.537L81.7228 144.222L89.1045 145.206H97.9626L104.36 144.222L130.442 121.585L134.871 112.727L136.348 102.392V80.7393" stroke="#FC6027" stroke-width="3"/>
<path d="M42.3533 65.9745L47.2744 46.2899L51.7034 31.0344L56.6246 19.2236" stroke="#FC6027" stroke-width="3"/>
<path d="M143.729 67.4516L140.284 50.7197" stroke="#FC6027" stroke-width="3"/>
<path d="M56.6245 19.7161L59.0851 15.2871L63.022 11.8423L69.9116 7.41326L78.7697 3.96846L85.6593 2H94.0252H101.407L109.281 3.96846L117.155 7.41326L125.028 15.2871L127.981 18.7319" stroke="#FC6027" stroke-width="3"/>
</svg>
