<svg width="229" height="209" viewBox="0 0 229 209" fill="none" xmlns="http://www.w3.org/2000/svg">
<path d="M183.192 185.366L185.349 193.819V199.021L183.192 202.922H82.5296L65.2732 193.819" stroke="#FE662E" stroke-width="3"/>
<path d="M182.473 202.921H227.052V2H114.886V42.3143M114.886 42.3143V126.844L94.7532 61.8212L102.662 57.9198L107.695 55.3189V50.7672V42.3143H114.886Z" stroke="#FE662E" stroke-width="3"/>
<path d="M133.58 123.594V39.0637H140.051L146.522 35.8125L150.836 29.9605V24.1084H191.101V29.9605L194.696 35.8125L201.886 39.0637L209.076 42.3148V59.2208" stroke="#FE662E" stroke-width="3"/>
<path d="M186.067 95.6338L179.596 89.7817L175.282 87.8311H170.249L165.216 88.4813L160.902 89.7817L157.307 92.3827L154.43 95.6338L152.992 98.885L152.273 102.136V107.338L153.711 112.54L158.026 117.091L163.059 119.042L168.092 120.343H173.844L179.596 119.042L183.91 116.441L186.786 111.89L188.224 107.338V102.136L186.067 95.6338Z" stroke="#FE662E" stroke-width="3"/>
<path d="M2 200.97V128.144V123.593L11.3472 119.691H56.6452L65.2734 128.144V200.97L56.6452 206.822H7.03311L2 200.97Z" stroke="#FE662E" stroke-width="3"/>
<path d="M32.918 120.992V173.661" stroke="#FE662E" stroke-width="3"/>
<path d="M65.2732 127.494L89.7197 107.987L68.1493 29.9592L109.133 18.9053" stroke="#FE662E" stroke-width="3"/>
<path d="M91.158 109.288L96.1911 126.194H186.787L196.134 130.746L197.572 135.948V141.8L196.134 146.351H140.051" stroke="#FE662E" stroke-width="3"/>
<path d="M196.853 146.351L206.919 148.952L211.233 153.503V160.005L206.919 165.857H199.01H140.77" stroke="#FE662E" stroke-width="3"/>
<path d="M201.167 165.858L201.886 172.36L201.167 178.212L200.448 182.114L197.572 184.715H140.77" stroke="#FE662E" stroke-width="3"/>
<path d="M207.638 150.253L209.076 56.6196" stroke="#FE662E" stroke-width="3"/>
</svg>
