<svg width="207" height="209" viewBox="0 0 207 209" fill="none" xmlns="http://www.w3.org/2000/svg">
<path d="M80.1316 131.218L56.0911 106.176L5.00506 156.26L3.00169 159.265L2 163.272V167.279L4.00338 172.287L7.00844 176.294L10.0135 179.299L15.0219 182.304L21.0321 183.306H25.0388L30.0473 181.302L80.1316 131.218Z" stroke="#FE662E" stroke-width="3"/>
<path d="M42.0674 118.196L34.0539 105.174L30.0471 90.1485L29.0454 80.1316L30.0471 68.1114L32.0505 58.0945M68.1112 144.24L76.1247 149.248L93.1534 154.257H111.184L121.201 152.587M32.0505 58.0945L34.0539 52.0844L37.0589 45.0726L40.064 40.0641L43.069 35.0557L48.0775 28.0439L55.0893 22.0338L61.0994 17.0253L71.1163 11.0152L86.1416 5.00506L103.17 2H118.196L130.216 5.00506L141.234 10.0135L150.25 15.0219L158.263 22.0338L164.273 28.0439L170.283 36.0574L174.29 43.0692L179.299 54.0878L182.304 63.103L184.307 75.1232V85.1401L181.302 96.1586L176.294 110.182L168.28 123.204L158.263 134.223L145.241 144.24L129.214 151.251L121.201 152.587M32.0505 58.0945L121.201 152.587" stroke="#FE662E" stroke-width="3"/>
<path d="M124.206 169.282H130.216" stroke="#FE662E" stroke-width="3"/>
<path d="M138.229 169.282H151.251" stroke="#FE662E" stroke-width="3"/>
<path d="M114.189 183.307H137.228" stroke="#FE662E" stroke-width="3"/>
<path d="M145.241 183.307H151.251" stroke="#FE662E" stroke-width="3"/>
<path d="M103.17 197.329H117.194" stroke="#FE662E" stroke-width="3"/>
<path d="M122.202 197.329H149.248" stroke="#FE662E" stroke-width="3"/>
<path d="M162.27 168.28L159.265 174.29L158.263 177.295L157.261 185.309L159.265 192.32L161.268 197.329L166.277 202.337L174.29 206.344L179.299 207.346H186.31L193.322 205.342L199.332 201.336L202.337 196.327L204.341 192.32L205.342 187.312V183.305L204.341 178.297L202.337 172.287L199.332 168.28L196.327 165.275L191.319 161.268L186.31 159.265H179.299L172.287 160.266L166.277 164.273L162.27 168.28Z" stroke="#FE662E" stroke-width="3"/>
</svg>
