<svg width="179" height="200" viewBox="0 0 179 200" fill="none" xmlns="http://www.w3.org/2000/svg">
<path d="M2 0V198.454H176.119V79.6191V10.6951" stroke="#FE662E" stroke-width="3"/>
<path d="M157.376 177.766H168.992" stroke="#FBB818" stroke-width="3"/>
<path d="M141.079 3.21191V44.5541" stroke="#FE662E" stroke-width="3"/>
<path d="M2.14502 41.373H178.495" stroke="#FE662E" stroke-width="3"/>
<path d="M65.5044 2.61475H175.327V14.6114" stroke="#FE662E" stroke-width="3"/>
<path d="M65.5047 2.61475L2.14526 2.61475" stroke="#FE662E" stroke-width="3"/>
<path d="M162.655 168.168L152.976 176.531L160.543 187.363" stroke="#FE662E" stroke-width="3"/>
<path d="M106.22 88.8646L86.6248 88.7778L86.7475 53.0012L106.343 53.088L106.22 88.8646Z" stroke="#FE662E" stroke-width="3"/>
<path d="M141.079 39.8047V195.612" stroke="#FE662E" stroke-width="3"/>
<path d="M39.6042 3.21143L40.3041 195.612" stroke="#FE662E" stroke-width="3"/>
<path d="M6.01123 157.45L177.44 158.572" stroke="#FE662E" stroke-width="3"/>
<path d="M60.2253 108.818L60.2253 135.161L78.4209 135.161L78.4209 98.5887L60.2253 98.5887L60.2253 112.899" stroke="#FE662E" stroke-width="3"/>
<path d="M99.2964 120.814L99.2964 147.156L117.492 147.156L117.492 110.584L99.2964 110.584L99.2964 124.895" stroke="#FE662E" stroke-width="3"/>
</svg>
