<svg width="213" height="215" viewBox="0 0 213 215" fill="none" xmlns="http://www.w3.org/2000/svg">
<path d="M82.3833 13.0449L96.2423 22.7089" stroke="#FE662E" stroke-width="3"/>
<path d="M75.4536 21.3281L87.9267 30.9921" stroke="#FE662E" stroke-width="3"/>
<path d="M211.272 184.476L130.787 47.9021L129.35 46.4644L123.601 42.1516L114.977 39.2764H109.229L102.042 42.1516L97.7308 45.0268L35.93 149.973L17.2461 181.6V190.226L21.5578 203.165L27.3067 207.477L33.0556 210.353L41.6789 213.228H186.839L198.337 210.353L205.523 203.165L209.834 197.414L211.272 190.226V184.476Z" stroke="#FE662E" stroke-width="3"/>
<path d="M2 104.507L91.2061 2L103.558 10.2006L2 138.676" stroke="#FE662E" stroke-width="3"/>
<path d="M128.178 8.21353L125.1 12.8729V17.5324V20.6386L126.639 23.7449L128.178 26.8512L129.717 28.4043L131.255 29.9575L132.794 31.5106L135.872 33.0637H137.41H143.565L146.643 31.5106L149.72 29.9575L151.259 28.4043L152.798 26.8512L154.337 25.298L155.875 22.1918V20.6386V19.0855V17.5324V14.4261L154.337 11.3198L152.798 8.21353L149.72 5.10725L143.565 2.00098H138.949L134.333 3.55411L131.255 5.10725L128.178 8.21353Z" stroke="#FE662E" stroke-width="3"/>
<path d="M103.251 60.3979L100.481 64.5914V68.7849V71.5805L101.866 74.3762L103.251 77.1718L104.636 78.5697L106.021 79.9675L107.406 81.3653L110.176 82.7631H111.56H117.1L119.87 81.3653L122.639 79.9675L124.024 78.5697L125.409 77.1718L126.794 75.774L128.179 72.9784V71.5805V70.1827V68.7849V65.9892L126.794 63.1936L125.409 60.3979L122.639 57.6023L117.1 54.8066H112.945L108.791 56.2045L106.021 57.6023L103.251 60.3979Z" stroke="#FE662E" stroke-width="3"/>
<path d="M121.717 91.4614L118.947 95.6549V99.8484V102.644L120.332 105.44L121.717 108.235L123.102 109.633L124.487 111.031L125.872 112.429L128.641 113.827H130.026H135.566L138.336 112.429L141.105 111.031L142.49 109.633L143.875 108.235L145.26 106.837L146.645 104.042V102.644V101.246V99.8484V97.0527L145.26 94.2571L143.875 91.4614L141.105 88.6658L135.566 85.8701H131.411L127.257 87.2679L124.487 88.6658L121.717 91.4614Z" stroke="#FE662E" stroke-width="3"/>
<path d="M137.892 128.942L136.416 133.698L137.597 137.669L138.385 140.316L140.501 142.571L142.617 144.827L144.34 145.758L146.062 146.689L147.785 147.621L150.836 148.16L152.165 147.768L157.48 146.199L159.744 144.091L162.008 141.983L162.943 140.267L163.878 138.551L164.813 136.835L165.354 133.795L164.96 132.472L164.567 131.148L164.173 129.824L163.385 127.177L161.269 124.922L159.153 122.667L155.708 120.804L149.605 119.725L145.619 120.902L142.026 123.402L139.762 125.511L137.892 128.942Z" stroke="#FE662E" stroke-width="3"/>
<path d="M160.068 153.793L158.592 158.548L159.773 162.52L160.561 165.167L162.677 167.422L164.793 169.677L166.516 170.609L168.238 171.54L169.961 172.471L173.012 173.011L174.341 172.618L179.656 171.05L181.92 168.941L184.184 166.833L185.119 165.117L186.054 163.402L186.989 161.686L187.53 158.646L187.136 157.322L186.743 155.999L186.349 154.675L185.561 152.028L183.445 149.772L181.329 147.517L177.884 145.654L171.781 144.576L167.795 145.753L164.202 148.253L161.938 150.361L160.068 153.793Z" stroke="#FE662E" stroke-width="3"/>
<path d="M168.385 184.165L166.908 188.921L168.09 192.892L168.877 195.539L170.993 197.794L173.11 200.049L174.832 200.981L176.555 201.912L178.277 202.844L181.328 203.383L182.657 202.991L187.972 201.422L190.236 199.314L192.5 197.205L193.435 195.489L194.37 193.774L195.305 192.058L195.846 189.018L195.453 187.694L195.059 186.371L194.665 185.047L193.878 182.4L191.762 180.145L189.645 177.889L186.2 176.027L180.098 174.948L176.111 176.125L172.519 178.625L170.255 180.733L168.385 184.165Z" stroke="#FE662E" stroke-width="3"/>
<path d="M140.665 186.926L139.189 191.682L140.37 195.653L141.158 198.3L143.274 200.555L145.39 202.81L147.113 203.742L148.835 204.673L150.558 205.605L153.609 206.144L154.938 205.752L160.253 204.183L162.517 202.075L164.781 199.967L165.716 198.251L166.651 196.535L167.586 194.819L168.127 191.779L167.733 190.456L167.34 189.132L166.946 187.808L166.158 185.161L164.042 182.906L161.926 180.651L158.481 178.788L152.378 177.709L148.392 178.886L144.799 181.386L142.535 183.494L140.665 186.926Z" stroke="#FE662E" stroke-width="3"/>
<path d="M104.633 186.926L103.156 191.682L104.338 195.653L105.125 198.3L107.241 200.555L109.358 202.81L111.08 203.742L112.803 204.673L114.525 205.605L117.576 206.144L118.905 205.752L124.22 204.183L126.484 202.075L128.748 199.967L129.683 198.251L130.618 196.535L131.553 194.819L132.095 191.779L131.701 190.456L131.307 189.132L130.913 187.808L130.126 185.161L128.01 182.906L125.893 180.651L122.448 178.788L116.346 177.709L112.359 178.886L108.767 181.386L106.503 183.494L104.633 186.926Z" stroke="#FE662E" stroke-width="3"/>
<path d="M65.8258 186.926L64.3494 191.682L65.5307 195.653L66.3181 198.3L68.4344 200.555L70.5507 202.81L72.2732 203.742L73.9957 204.673L75.7183 205.605L78.7696 206.144L80.0984 205.752L85.4135 204.183L87.6774 202.075L89.9412 199.967L90.8763 198.251L91.8113 196.535L92.7464 194.819L93.2877 191.779L92.8939 190.456L92.5002 189.132L92.1064 187.808L91.319 185.161L89.2027 182.906L87.0864 180.651L83.6414 178.788L77.5387 177.709L73.5524 178.886L69.9597 181.386L67.6959 183.494L65.8258 186.926Z" stroke="#FE662E" stroke-width="3"/>
<path d="M27.024 184.165L25.5477 188.921L26.7289 192.892L27.5164 195.539L29.6327 197.794L31.7489 200.049L33.4715 200.981L35.194 201.912L36.9165 202.844L39.9678 203.383L41.2966 202.991L46.6118 201.422L48.8756 199.314L51.1395 197.205L52.0745 195.489L53.0095 193.774L53.9446 192.058L54.4859 189.018L54.0922 187.694L53.6984 186.371L53.3047 185.047L52.5172 182.4L50.4009 180.145L48.2847 177.889L44.8396 176.027L38.737 174.948L34.7506 176.125L31.158 178.625L28.8941 180.733L27.024 184.165Z" stroke="#FE662E" stroke-width="3"/>
<path d="M40.879 153.793L39.4027 158.548L40.5839 162.52L41.3714 165.167L43.4876 167.422L45.6039 169.677L47.3264 170.609L49.049 171.54L50.7715 172.471L53.8228 173.011L55.1516 172.618L60.4668 171.05L62.7306 168.941L64.9944 166.833L65.9295 165.117L66.8645 163.402L67.7996 161.686L68.3409 158.646L67.9471 157.322L67.5534 155.999L67.1597 154.675L66.3722 152.028L64.2559 149.772L62.1396 147.517L58.6946 145.654L52.5919 144.576L48.6056 145.753L45.013 148.253L42.7491 150.361L40.879 153.793Z" stroke="#FE662E" stroke-width="3"/>
<path d="M60.2816 126.181L58.8053 130.937L59.9865 134.908L60.774 137.555L62.8902 139.81L65.0065 142.065L66.729 142.997L68.4516 143.928L70.1741 144.86L73.2254 145.399L74.5542 145.007L79.8693 143.438L82.1332 141.33L84.397 139.221L85.3321 137.506L86.2671 135.79L87.2022 134.074L87.7435 131.034L87.3497 129.711L86.956 128.387L86.5623 127.063L85.7748 124.416L83.6585 122.161L81.5422 119.906L78.0972 118.043L71.9945 116.964L68.0082 118.141L64.4155 120.641L62.1517 122.749L60.2816 126.181Z" stroke="#FE662E" stroke-width="3"/>
<path d="M82.4579 95.8081L80.9815 100.564L82.1627 104.535L82.9502 107.182L85.0665 109.437L87.1828 111.692L88.9053 112.624L90.6278 113.555L92.3504 114.487L95.4017 115.026L96.7305 114.634L102.046 113.065L104.309 110.957L106.573 108.848L107.508 107.133L108.443 105.417L109.378 103.701L109.92 100.661L109.526 99.3375L109.132 98.0138L108.739 96.6901L107.951 94.0428L105.835 91.7876L103.719 89.5325L100.273 87.6696L94.1708 86.5911L90.1844 87.7678L86.5918 90.2682L84.328 92.3763L82.4579 95.8081Z" stroke="#FE662E" stroke-width="3"/>
<path d="M99.0887 128.942L97.6124 133.698L98.7936 137.669L99.5811 140.316L101.697 142.571L103.814 144.827L105.536 145.758L107.259 146.689L108.981 147.621L112.033 148.16L113.361 147.768L118.676 146.199L120.94 144.091L123.204 141.983L124.139 140.267L125.074 138.551L126.009 136.835L126.551 133.795L126.157 132.472L125.763 131.148L125.369 129.824L124.582 127.177L122.466 124.922L120.349 122.667L116.904 120.804L110.802 119.725L106.815 120.902L103.223 123.402L100.959 125.511L99.0887 128.942Z" stroke="#FE662E" stroke-width="3"/>
<path d="M118.491 156.554L117.014 161.31L118.196 165.281L118.983 167.928L121.099 170.183L123.216 172.438L124.938 173.37L126.661 174.301L128.383 175.233L131.435 175.772L132.763 175.38L138.079 173.811L140.342 171.703L142.606 169.595L143.541 167.879L144.476 166.163L145.411 164.447L145.953 161.407L145.559 160.084L145.165 158.76L144.771 157.436L143.984 154.789L141.868 152.534L139.751 150.279L136.306 148.416L130.204 147.337L126.217 148.514L122.625 151.014L120.361 153.122L118.491 156.554Z" stroke="#FE662E" stroke-width="3"/>
<path d="M79.6862 156.554L78.2098 161.31L79.391 165.281L80.1785 167.928L82.2948 170.183L84.411 172.438L86.1336 173.37L87.8561 174.301L89.5786 175.233L92.6299 175.772L93.9587 175.38L99.2739 173.811L101.538 171.703L103.802 169.595L104.737 167.879L105.672 166.163L106.607 164.447L107.148 161.407L106.754 160.084L106.361 158.76L105.967 157.436L105.179 154.789L103.063 152.534L100.947 150.279L97.5017 148.416L91.3991 147.337L87.4127 148.514L83.8201 151.014L81.5562 153.122L79.6862 156.554Z" stroke="#FE662E" stroke-width="3"/>
</svg>
