<svg width="194" height="191" viewBox="0 0 194 191" fill="none" xmlns="http://www.w3.org/2000/svg">
<path d="M49.1877 160.797V7.73894C49.1877 7.22561 49.3195 6.72087 49.5703 6.273L51.1043 3.53406C51.6349 2.58671 52.6359 2 53.7217 2H56.127H95.6809H138.01H140.213C140.592 2 140.967 2.07176 141.319 2.21148L143.959 3.25906C144.6 3.51325 145.134 3.98029 145.47 4.58164L147.343 7.92502C147.594 8.37289 147.725 8.87762 147.725 9.39095V157.29V157.849C147.725 158.555 147.476 159.238 147.022 159.779L144.95 162.246L143.05 164.507C142.493 165.169 141.677 165.559 140.812 165.576L58.1186 167.19C57.7201 167.198 57.3241 167.126 56.9536 166.979L53.7629 165.713C53.49 165.605 53.2344 165.457 53.0045 165.275L50.3229 163.147C49.6058 162.577 49.1877 161.712 49.1877 160.797Z" stroke="#FE662E" stroke-opacity="0.77" stroke-width="3"/>
<path d="M148.19 18.6875L190.747 36.6919L192.135 39.9959V43.3L190.747 49.9081L151.887 182.069L147.724 187.026L144.948 188.678L131.069 183.721L96.373 168.853" stroke="#FE662E" stroke-opacity="0.77" stroke-width="3"/>
<path d="M49.187 15.2173L7.55142 35.0415L3.38785 38.3455L2 41.6496V46.6056L47.7992 183.723L51.9627 188.679H56.1263L97.7619 168.855" stroke="#FE662E" stroke-width="3"/>
<path d="M64.9026 16.6865H68.4709V18.2246H64.9026V22.2676H63.2678V18.2246H59.6995V16.6865H63.2678V12.9512H64.9026V16.6865ZM77.1545 19.2529H78.9299V20.5801H77.1545V23.5508H75.5198V20.5801H69.6926V19.6221L75.4231 10.7539H77.1545V19.2529ZM71.5383 19.2529H75.5198V12.9775L75.3264 13.3291L71.5383 19.2529Z" fill="#FE662E"/>
<path d="M157.006 38.2427H158.228C158.996 38.231 159.599 38.0288 160.039 37.6362C160.478 37.2437 160.698 36.7134 160.698 36.0454C160.698 34.5454 159.951 33.7954 158.457 33.7954C157.753 33.7954 157.191 33.9976 156.769 34.4019C156.353 34.8003 156.145 35.3306 156.145 35.9927H154.519C154.519 34.979 154.888 34.1382 155.626 33.4702C156.371 32.7964 157.314 32.4595 158.457 32.4595C159.664 32.4595 160.61 32.7788 161.295 33.4175C161.981 34.0562 162.324 34.9438 162.324 36.0806C162.324 36.6372 162.142 37.1763 161.779 37.6978C161.421 38.2192 160.932 38.6089 160.311 38.8667C161.014 39.0894 161.556 39.4585 161.937 39.9741C162.324 40.4897 162.517 41.1196 162.517 41.8638C162.517 43.0122 162.142 43.9233 161.392 44.5972C160.642 45.271 159.667 45.6079 158.465 45.6079C157.264 45.6079 156.286 45.2827 155.53 44.6323C154.78 43.9819 154.405 43.1235 154.405 42.0571H156.04C156.04 42.731 156.259 43.27 156.699 43.6743C157.138 44.0786 157.727 44.2808 158.465 44.2808C159.25 44.2808 159.851 44.0757 160.267 43.6655C160.683 43.2554 160.891 42.6665 160.891 41.8989C160.891 41.1548 160.663 40.5835 160.206 40.1851C159.749 39.7866 159.089 39.5815 158.228 39.5698H157.006V38.2427Z" fill="#FE662E"/>
<path d="M15.2024 40.855H18.7708V42.3931H15.2024V46.436H13.5676V42.3931H9.99927V40.855H13.5676V37.1196H15.2024V40.855ZM28.9749 47.7192H20.5901V46.5503L25.0198 41.6284C25.676 40.8843 26.1272 40.2808 26.3733 39.8179C26.6252 39.3491 26.7512 38.8657 26.7512 38.3677C26.7512 37.6997 26.5491 37.1519 26.1448 36.7241C25.7405 36.2964 25.2014 36.0825 24.5276 36.0825C23.719 36.0825 23.0891 36.314 22.6379 36.7769C22.1926 37.2339 21.97 37.8726 21.97 38.6929H20.344C20.344 37.5151 20.7219 36.563 21.4778 35.8364C22.2395 35.1099 23.2561 34.7466 24.5276 34.7466C25.717 34.7466 26.6575 35.0601 27.3489 35.687C28.0403 36.3081 28.386 37.1372 28.386 38.1743C28.386 39.4341 27.5833 40.9341 25.9778 42.6743L22.55 46.3921H28.9749V47.7192Z" fill="#FE662E"/>
<path d="M65.8416 117.642V84.6016H78.9987V117.642H65.8416Z" stroke="#FE662E" stroke-width="3"/>
<path d="M88.0457 84.6014V51.561H104.7V84.6014H88.0457Z" stroke="#FE662E" stroke-width="3"/>
<path d="M115.803 91.2098V58.1694H132.457V91.2098H115.803Z" stroke="#FE662E" stroke-width="3"/>
<path d="M93.5967 127.554V94.5132H110.251V127.554H93.5967Z" stroke="#FE662E" stroke-width="3"/>
</svg>
