<svg width="200" height="206" viewBox="0 0 200 206" fill="none" xmlns="http://www.w3.org/2000/svg">
<path d="M59.5798 31.4419H72.267V50.9606V52.9125H59.5798" stroke="#FE662E" stroke-width="3"/>
<path d="M140.583 32.4165H126.92V52.9111H139.607" stroke="#FE662E" stroke-width="3"/>
<path d="M52.7486 102.685V120.252V124.156L50.7968 126.108L46.893 128.059H42.9893L40.0615 130.011L39.0855 131.963L38.1096 134.891V138.795V150.506V151.482V154.41M38.1096 154.41H12.7353L7.85561 155.386L3.95187 160.265L2 165.145V172.952V197.351L5.90374 201.255L10.7834 203.206H18.5909L21.5187 200.279L23.4706 195.399L25.4225 189.543L28.3503 187.591H46.893L50.7968 188.567L53.7246 190.519L55.6765 195.399L57.6283 199.303L59.5802 201.255L62.508 202.23H65.4358H70.3155L73.2433 201.255L75.1952 199.303L77.147 196.375V193.447V164.169L74.2192 157.337L70.3155 155.386L66.4117 154.41H62.508H54.7005H38.1096Z" stroke="#FE662E" stroke-width="3"/>
<path d="M146.438 103.661V122.204L147.414 124.156L149.366 126.108L153.27 127.084L158.15 128.06L160.101 130.011V133.915L159.125 136.843V143.674V153.434M159.125 152.458V155.386M159.125 155.386H133.751L128.871 156.362L124.968 161.241L123.016 166.121V173.928V198.327L126.92 202.231L131.799 204.182H139.607L142.535 201.255L144.486 196.375L146.438 190.519L149.366 188.568H167.909L171.813 189.543L174.74 191.495L176.692 196.375L178.644 200.279L180.596 202.231L183.524 203.207H186.452H191.331L194.259 202.231L196.211 200.279L198.163 197.351V194.423V165.145L195.235 158.314L191.331 156.362L187.428 155.386H183.524H175.716H159.125Z" stroke="#FE662E" stroke-width="3"/>
<path d="M19.5667 165.145V176.856" stroke="#FE662E" stroke-width="3"/>
<path d="M140.583 166.121V177.832" stroke="#FE662E" stroke-width="3"/>
<path d="M12.7351 171H25.4223" stroke="#FE662E" stroke-width="3"/>
<path d="M133.751 171.976H146.439" stroke="#FE662E" stroke-width="3"/>
<path d="M81.548 102.152H25.8644L17.615 96.0303V8.28486L25.8644 2.16309H177.447L181.572 8.28486V96.0303L174.354 102.152H116.608M81.548 102.152L78.1123 118.299H68.8317L66.0803 121.538L65.0491 125.131L64.4599 129.035L65.0491 132.938L68.3636 135.866L131.799 135.822L134.138 133.914L135.703 130.72V124.155L134.138 121.538L128.872 118.299H121.064L116.608 102.152M81.548 102.152H116.608" stroke="#FE662E" stroke-width="3"/>
<path d="M78.1228 117.323H121.064" stroke="#FE662E" stroke-width="3"/>
<rect x="44.9412" y="168.072" width="7.80748" height="7.80748" fill="#FE662E"/>
<rect x="165.957" y="169.048" width="7.80748" height="7.80748" fill="#FE662E"/>
<rect x="58.6042" y="168.072" width="7.80748" height="7.80748" fill="#FE662E"/>
<rect x="179.62" y="168.072" width="7.80748" height="7.80748" fill="#FE662E"/>
<path d="M17.615 80.2383H181.572" stroke="#FE662E" stroke-width="3"/>
<path d="M58.6042 19.73V67.5508" stroke="#FE662E" stroke-width="3"/>
<path d="M58.6042 67.5502H140.583V18.7534H99.5935M58.6042 18.7534H99.5935M99.5935 18.7534V35.3443L95.6898 36.3203L92.762 38.2721L91.7861 41.1999V45.1037L92.762 47.0555L94.7139 49.0074L97.6417 49.9833H99.5935L100.569 66.5742" stroke="#FE662E" stroke-width="3"/>
<path d="M99.5938 49.9842H102.522L104.473 49.0083L106.425 48.0324L107.401 45.1046V43.1527L106.425 39.249L105.449 37.2971L103.497 36.3212L99.5938 35.3452" stroke="#FE662E" stroke-width="3"/>
</svg>
