<svg width="192" height="198" viewBox="0 0 192 198" fill="none" xmlns="http://www.w3.org/2000/svg">
<path d="M158.136 91.498L159.124 157.708L158.136 161.66L153.195 163.637H109.714" stroke="#FE662E" stroke-width="3"/>
<path d="M13.8582 15.4072H145.289V32.2067" stroke="#FE662E" stroke-width="3"/>
<path d="M66.2336 16.3955V58.8883" stroke="#FE662E" stroke-width="3"/>
<path d="M12.8708 42.0889H80.0687" stroke="#FE662E" stroke-width="3"/>
<path d="M92.9143 16.3955V35.1714" stroke="#FE662E" stroke-width="3"/>
<path d="M118.608 15.4072V30.2303" stroke="#FE662E" stroke-width="3"/>
<path d="M13.8582 69.7578H62.2801" stroke="#FE662E" stroke-width="3"/>
<path d="M12.8708 96.4404H52.399" stroke="#FE662E" stroke-width="3"/>
<path d="M13.8582 123.121H52.3981" stroke="#FE662E" stroke-width="3"/>
<path d="M110.703 123.121H145.29" stroke="#FE662E" stroke-width="3"/>
<path d="M91.9265 96.4404H119.596" stroke="#FE662E" stroke-width="3"/>
<path d="M2 2.55957L158.136 3.54777V37.1467" stroke="#FE662E" stroke-width="3"/>
<path d="M118.608 51.9707V70.7466" stroke="#FE662E" stroke-width="3"/>
<path d="M188.906 56.3272L183.83 55.9229L177.9 53.9465L168.018 45.0526L156.16 36.1588L145.29 32.206L127.502 31.2178H105.762L91.9267 36.1588L82.0447 42.088L74.139 50.9818L63.2688 62.8403V71.7341L66.2334 74.6987V90.51" stroke="#FE662E" stroke-width="3"/>
<path d="M67.2214 74.6994L73.1507 76.6758L81.0563 72.723L85.9973 68.7702L91.9265 61.8527L98.844 54.9353L106.75 52.9589L119.596 51.9707M117.62 69.7584H110.702L99.8322 70.7466L93.9029 69.7584L91.9265 72.723V80.6286V95.4517" stroke="#FE662E" stroke-width="3"/>
<path d="M117.62 69.7584L125.526 70.7466H131.455L135.408 67.782L136.396 63.8291L135.408 56.9117L129.478 53.9471L121.573 51.9707H118.608" stroke="#FE662E" stroke-width="3"/>
<path d="M117.62 69.7578L116.632 72.7224L110.703 74.6988L104.773 77.6634L102.797 82.6045L103.785 87.5455L105.761 91.4983L108.726 93.4747L114.655 94.4629H144.301" stroke="#FE662E" stroke-width="3"/>
<path d="M119.596 95.4512V101.38" stroke="#FE662E" stroke-width="3"/>
<path d="M38.5632 14.418V143.873" stroke="#FE662E" stroke-width="3"/>
<path d="M52.3984 143.873V115.215L53.3866 112.251L55.363 110.274L58.3277 109.286L79.5949 110.274L90.9384 113.239L99.8322 119.168L106.75 126.086L108.726 134.979L109.714 149.802V175.496" stroke="#FE662E" stroke-width="3"/>
<path d="M61.2923 108.298L55.363 103.357L52.3984 98.4155V92.4863H65.2451H80.5614L92.9148 97.4273L100.82 104.345L107.738 113.239L109.714 123.121V134.979V140.908V152.767" stroke="#FE662E" stroke-width="3"/>
<path d="M120.075 99.0453V149.354H111.242H145.593V96.0268V89.9897H189.759V53.7676" stroke="#FE662E" stroke-width="3"/>
<path d="M2 0V161.302H65.1552" stroke="#FE662E" stroke-width="3"/>
<path d="M113.667 196.248H64.2566V176.484H113.667V196.248Z" stroke="#FE662E" stroke-width="3"/>
<path d="M66.2338 175.496V160.673L83.0333 150.791V144.861M66.2338 144.861V138.932L69.1985 134.979L73.1513 130.038V125.097L83.0333 120.156V144.861M66.2338 144.861H83.0333M66.2338 144.861H12.8708" stroke="#FE662E" stroke-width="3"/>
<path d="M12.2412 12.8018C12.2412 15.2042 12.2412 103.229 12.2412 145.94" stroke="#FE662E" stroke-width="3"/>
</svg>
