<svg width="245" height="252" viewBox="0 0 245 252" fill="none" xmlns="http://www.w3.org/2000/svg">
<path d="M203.1 206.163L194.777 198.311L206.8 194.821L203.1 206.163Z" stroke="#FE662E" stroke-width="3"/>
<path d="M219.123 127.198L217.6 145.927L203.913 145.823L219.123 127.198Z" stroke="#FE662E" stroke-width="3"/>
<path d="M73.0524 100.36L71.8625 114.986L61.1737 114.905L73.0524 100.36Z" stroke="#FE662E" stroke-width="3"/>
<path d="M85.6428 207.423L78.1514 198.699L88.9723 194.821L85.6428 207.423Z" stroke="#FE662E" stroke-width="3"/>
<path d="M19.2371 228.757L28.4184 222.546L36.0696 228.757L19.2371 230.108" stroke="#FE662E" stroke-width="3"/>
<path d="M31.6033 192.962L37.6656 193.713L30.6303 198.16L31.6033 192.962Z" stroke="#FE662E" stroke-width="3"/>
<path d="M82.9602 153.789V155.943C82.9602 156.251 83.0196 156.99 83.2572 157.482C83.4949 157.975 83.7523 158.098 83.8513 158.098L84.7425 158.713L85.9307 159.021L92.1686 159.636L99.8918 161.791L106.724 164.868L111.477 168.253L117.417 174.716L121.576 180.563L123.952 187.025L124.844 191.949L125.438 199.95V201.181L126.626 203.028L128.111 203.643H129.596L131.379 203.028L132.864 201.797L133.458 199.95L132.864 191.026L131.379 183.64L127.517 174.1L120.091 164.252L110.882 156.867L99.8918 151.635L93.6538 150.712H87.7129H85.0395L83.8513 151.635L83.2572 152.558L82.9602 153.789Z" stroke="#FE662E" stroke-width="3"/>
<path d="M0 250.273H59.3688L62.0674 243.341L68.3641 238.93L76.4599 236.41H85.755L93.8507 225.067L104.645 238.93H113.34L120.837 243.341L126.234 250.273H144.524L148.722 236.41L158.317 243.341L169.711 228.848L181.705 243.341L187.402 238.93H194.298L202.993 243.341L206.292 250.273H244.072" stroke="#FE662E" stroke-width="3"/>
<path d="M93.676 224.443V211.544L27.6533 134.774V133.83V131.313V129.74L28.8537 128.481L30.9545 127.852L33.3553 128.481L66.0665 143.583L91.2752 137.92L92.7757 114.323L84.6729 68.3869L62.1652 35.3508V32.5191L63.0655 30.0021L65.7664 29.3728L68.1673 30.0021L101.779 57.6895L103.279 60.2065L112.883 105.199L114.083 106.143H116.184L117.384 105.199L115.584 48.5652L103.279 6.40482V3.57315L105.38 2H108.081L109.882 3.57315L134.49 40.0702L136.291 44.7897L139.892 105.199L141.993 106.143H146.194L147.695 105.199L158.798 65.2406L147.695 36.9239L132.99 22.1363V18.3608L134.49 16.473L137.191 15.5291L160.899 24.3387L164.2 27.1704L179.506 63.3528V67.1284L173.804 105.199L181.306 106.143L196.311 86.0062L193.01 55.1725L182.206 41.3287V38.8117V36.9239L184.307 35.6654H187.308L206.515 44.7897L209.516 46.9921L210.716 49.8237L216.418 87.5793V90.411L168.402 205.566L169.302 228.848" stroke="#FE662E" stroke-width="3"/>
<ellipse cx="56.5091" cy="221.917" rx="7.21394" ry="8.19174" fill="#FE662E"/>
<ellipse cx="183.956" cy="218.136" rx="7.21394" ry="6.93147" fill="#FE662E"/>
<ellipse cx="209.806" cy="233.259" rx="4.20814" ry="4.41094" fill="#FE662E"/>
</svg>
